<?xml version="1.0" encoding="UTF-8" standalone="no"?>
<svg
   viewBox="0 0 246.669 303.44901"
   width="246.66901"
   height="303.44901"
   version="1.1"
   id="svg1243"
   sodipodi:docname="Couvercle boîte v2.dxf"
   inkscape:version="1.2.1 (9c6d41e410, 2022-07-14)"
   xmlns:inkscape="http://www.inkscape.org/namespaces/inkscape"
   xmlns:sodipodi="http://sodipodi.sourceforge.net/DTD/sodipodi-0.dtd"
   xmlns="http://www.w3.org/2000/svg"
   xmlns:svg="http://www.w3.org/2000/svg">
  <sodipodi:namedview
     id="namedview1245"
     pagecolor="#ffffff"
     bordercolor="#000000"
     borderopacity="0.25"
     inkscape:showpageshadow="2"
     inkscape:pageopacity="0.0"
     inkscape:pagecheckerboard="0"
     inkscape:deskcolor="#d1d1d1"
     showgrid="false"
     inkscape:zoom="1.9779745"
     inkscape:cx="129.67811"
     inkscape:cy="148.38411"
     inkscape:window-width="1920"
     inkscape:window-height="1001"
     inkscape:window-x="-9"
     inkscape:window-y="-9"
     inkscape:window-maximized="1"
     inkscape:current-layer="g1241" />
  <desc
     id="desc1099">Couvercle boîte v2.dxf - scale = 1.000000, origin = (0.000000, 0.000000), method = manual</desc>
  <defs
     id="defs1113">
    <marker
       id="DistanceX"
       orient="auto"
       refX="0"
       refY="0"
       style="overflow:visible">
      <path
         d="M 3,-3 -3,3 M 0,-5 V 5"
         style="stroke:#000000;stroke-width:0.5"
         id="path1101" />
    </marker>
    <pattern
       id="Hatch"
       patternUnits="userSpaceOnUse"
       width="8"
       height="8"
       x="0"
       y="0">
      <path
         d="M8 4 l-4,4"
         stroke="#000000"
         stroke-width="0.25"
         linecap="square"
         id="path1104" />
      <path
         d="M6 2 l-4,4"
         stroke="#000000"
         stroke-width="0.25"
         linecap="square"
         id="path1106" />
      <path
         d="M4 0 l-4,4"
         stroke="#000000"
         stroke-width="0.25"
         linecap="square"
         id="path1108" />
    </pattern>
    <symbol
       id="*MODEL_SPACE" />
    <symbol
       id="*PAPER_SPACE" />
  </defs>
  <g
     inkscape:groupmode="layer"
     inkscape:label="0"
     id="g1241"
     transform="translate(-76.478,-925.611)">
    <path
       d="m 90.206385,939.33953 v 264.56697 h 12.751475 l 14.27822,11.4225 h 130.5732 l 11.42257,-11.4225 h 50.18713 V 939.33953 h -49.13386 v -7.55906 h 56.69292 v 279.68503 h -54.61513 l -11.42257,11.4226 H 114.5845 l -14.27821,-11.4226 H 82.64733 V 931.78047 h 11.338583 v 7.55906 h -1.677325 z"
       style="fill:none;stroke:#ff0000;stroke-opacity:1"
       id="path1115"
       sodipodi:nodetypes="cccccccccccccccccccccc" />
    <path
       style="fill:none;stroke:#ff0000;stroke-opacity:1"
       d="m 95.8757,945.009 h 4.032284"
       id="path1125"
       sodipodi:nodetypes="cc" />
    <path
       style="fill:none;stroke:#ff0000;stroke-opacity:1"
       d="M 99.6552,945.009 V 926.111"
       id="path1127" />
    <path
       style="fill:none;stroke:#ff0000;stroke-width:1.0015748;stroke-dasharray:none;stroke-opacity:1"
       d="M 95.689572,988.77657 V 944.60018"
       id="path1127-4" />
    <path
       style="fill:none;stroke:#000000"
       d="M 99.6552,926.111 H 76.978"
       id="path1129" />
    <path
       style="fill:none;stroke:#000000"
       d="M 76.978,926.111 V 1217.13"
       id="path1131" />
    <path
       style="fill:none;stroke:#000000"
       d="M 76.978,1217.13 H 98.3176"
       id="path1133" />
    <path
       style="fill:none;stroke:#000000"
       d="m 98.3176,1217.13 14.2784,11.43"
       id="path1135" />
    <path
       style="fill:none;stroke:#000000"
       d="M 112.596,1228.56 H 253.289"
       id="path1137" />
    <path
       style="fill:none;stroke:#000000"
       d="m 253.289,1228.56 11.422,-11.43"
       id="path1139" />
    <path
       style="fill:none;stroke:#000000"
       d="m 264.711,1217.13 h 57.936"
       id="path1141" />
    <path
       style="fill:none;stroke:#000000"
       d="M 322.647,1217.13 V 926.111"
       id="path1143" />
    <path
       style="fill:none;stroke:#000000"
       d="M 322.647,926.111 H 254.616"
       id="path1145" />
    <path
       style="fill:none;stroke:#ff0000;stroke-opacity:1"
       d="M 322.647,926.111 H 76.978"
       id="path1147" />
    <path
       style="fill:none;stroke:#ff0000;stroke-opacity:1"
       d="M 76.978,926.111 V 1217.13"
       id="path1149" />
    <path
       style="fill:none;stroke:#ff0000;stroke-opacity:1"
       d="M 76.978,1217.13 H 98.3176"
       id="path1151" />
    <path
       style="fill:none;stroke:#ff0000;stroke-opacity:1"
       d="m 98.3176,1217.13 14.2784,11.43"
       id="path1153" />
    <path
       style="fill:none;stroke:#ff0000;stroke-opacity:1"
       d="M 112.596,1228.56 H 253.289"
       id="path1155" />
    <path
       style="fill:none;stroke:#ff0000;stroke-opacity:1"
       d="m 253.289,1228.56 11.422,-11.43"
       id="path1157" />
    <path
       style="fill:none;stroke:#ff0000;stroke-opacity:1"
       d="m 264.711,1217.13 h 57.936"
       id="path1159" />
    <path
       style="fill:none;stroke:#ff0000;stroke-opacity:1"
       d="M 322.647,1217.13 V 926.111"
       id="path1161" />
    <path
       style="fill:none;stroke:#fa0000;stroke-opacity:1"
       d="M 316.978,1211.47 H 262.363"
       id="path1163" />
    <path
       style="fill:none;stroke:#ff0000;stroke-opacity:1"
       d="m 262.363,1211.47 -11.423,11.42"
       id="path1165" />
    <path
       style="fill:none;stroke:#ff0000;stroke-opacity:1"
       d="M 250.94,1222.89 H 114.585"
       id="path1167" />
    <path
       style="fill:none;stroke:#ff0000;stroke-opacity:1"
       d="m 114.585,1222.89 -14.279,-11.42"
       id="path1169" />
    <path
       style="fill:none;stroke:#ff0000;stroke-opacity:1"
       d="M 100.306,1211.47 H 82.6473"
       id="path1171" />
    <path
       style="fill:none;stroke:#ff0000;stroke-opacity:1"
       d="M 90.2064,1203.91 H 102.958"
       id="path1183" />
    <path
       style="fill:none;stroke:#ff0000;stroke-opacity:1"
       d="m 102.958,1203.91 14.278,11.42"
       id="path1185" />
    <path
       style="fill:none;stroke:#ff0000;stroke-opacity:1"
       d="M 117.236,1215.33 H 247.809"
       id="path1187" />
    <path
       style="fill:none;stroke:#ff0000;stroke-opacity:1"
       d="m 247.809,1215.33 11.423,-11.42"
       id="path1189" />
    <path
       style="fill:none;stroke:#ff0000;stroke-opacity:1"
       d="m 259.232,1203.91 h 50.187"
       id="path1191" />
    <path
       style="fill:none;stroke:#000000"
       d="m 158.238,939.34 h 52.913"
       id="path1203" />
    <path
       d="m 211.15127,939.33953 v -7.55906 h -52.91339 v 7.55906 z"
       style="fill:none;stroke:#ff0000;stroke-opacity:1"
       id="path1205" />
    <path
       d="m 303.74969,945.00882 v 37.79527 h -37.79527 v -37.79527 z"
       style="fill:none;stroke:#ff0000;stroke-opacity:1"
       id="path1217" />
    <path
       style="fill:none;stroke:#ff0000;stroke-width:0.963185;stroke-opacity:1"
       d="m 153.17537,988.60022 -57.720451,-0.12805 0.655655,0.12805"
       id="path1221"
       sodipodi:nodetypes="ccc" />
    <path
       d="M 300.91505,996.03244 H 278.23788 V 1200 h 22.67717 z"
       style="fill:none;stroke:#ff0000;stroke-opacity:1"
       id="path1227" />
    <path
       d="M 99.655204,1052.7254 H 122.33237 V 1200 H 99.655204 Z"
       style="fill:none;stroke:#fc0000;stroke-opacity:1"
       id="path1231" />
    <path
       d="m 228.91164,1209.6597 h -37.79528 v -22.6771 h 37.79528 z"
       style="fill:none;stroke:#ff0000;stroke-opacity:1"
       id="path1235" />
    <path
       style="fill:none;stroke:#ff0000;stroke-width:1.0015748;stroke-dasharray:none;stroke-opacity:1"
       d="m 152.569,931.78 v 56.693"
       id="path1237"
       sodipodi:nodetypes="cc" />
    <path
       style="fill:none;stroke:#ff0000;stroke-opacity:1"
       d="m 152.569,931.78 v -5.669"
       id="path1239" />
    <path
       style="fill:#000000;stroke-width:0.19092"
       d="m 197.88982,1118.1691 c -1.69368,-0.3803 -2.47049,-0.7461 -3.43215,-1.6159 -1.0787,-0.9756 -1.63999,-2.2428 -1.87259,-4.2275 -0.0999,-0.8529 -0.18239,-4.593 -0.18318,-8.3116 l -0.002,-6.7609 h 2.12014 2.12013 l 0.009,7.5174 c 0.009,7.8835 0.0628,8.4509 0.88827,9.3459 0.67111,0.7277 1.44808,0.9894 2.95846,0.9965 1.85584,0.01 2.60342,-0.3777 3.27617,-1.6935 l 0.48185,-0.9424 0.0583,-7.6119 0.0583,-7.612 h 2.02355 2.02356 l -0.058,7.8011 c -0.0561,7.5378 -0.0724,7.8354 -0.48255,8.8181 -0.89191,2.1368 -2.35667,3.4697 -4.49037,4.0862 -1.48415,0.4288 -4.08161,0.5283 -5.49674,0.2105 z m 56.95785,0.01 c -3.14434,-0.6649 -5.28351,-3.0157 -6.07352,-6.6744 -0.42043,-1.9471 -0.37596,-5.9045 0.0863,-7.6779 1.20082,-4.607 4.01298,-6.8494 8.58951,-6.8494 4.77774,0 7.40554,2.3542 8.33049,7.4629 0.34923,1.929 0.23644,5.5731 -0.22436,7.2486 -0.70121,2.5495 -2.24221,4.6663 -4.1319,5.6755 -1.79325,0.9576 -4.38338,1.2786 -6.57649,0.8147 z m 4.24531,-3.7628 c 1.93501,-0.9603 2.58928,-2.9109 2.45603,-7.3224 -0.10098,-3.3431 -0.44218,-4.5867 -1.54482,-5.6303 -0.80271,-0.7597 -1.45614,-0.9947 -2.76574,-0.9947 -1.3778,0 -2.16352,0.3416 -3.0053,1.3065 -1.06927,1.2258 -1.39845,2.6074 -1.40091,5.88 -0.002,3.0231 0.28822,4.4273 1.18126,5.7101 1.00376,1.4418 3.32433,1.9219 5.07948,1.0508 z m -124.70706,3.5161 c 0,-0.069 1.43109,-4.7059 3.1802,-10.3054 1.7491,-5.5995 3.18019,-10.2264 3.18019,-10.282 0,-0.056 1.31727,-0.078 2.92726,-0.049 l 2.92724,0.052 3.04586,9.7395 c 1.67521,5.3568 3.1264,10.0162 3.22487,10.3542 l 0.17902,0.6146 h -2.26683 -2.26683 l -0.20864,-0.7092 c -0.11475,-0.3899 -0.39235,-1.3261 -0.61689,-2.0802 l -0.40824,-1.3712 h -3.81625 -3.81625 l -0.63897,2.0803 -0.63897,2.0803 h -1.99339 c -1.09636,0 -1.99338,-0.056 -1.99338,-0.1244 z m 11.87653,-7.5821 c -0.0546,-0.1821 -0.68225,-2.3094 -1.39478,-4.7275 -0.71251,-2.418 -1.33004,-4.3626 -1.37228,-4.3211 -0.10004,0.098 -2.74908,8.9623 -2.74908,9.1989 0,0.1065 1.15297,0.1806 2.80771,0.1806 2.58333,0 2.79978,-0.026 2.70843,-0.3309 z m 9.13204,-2.6949 v -10.4015 h 3.9342 c 5.44951,0 7.22541,0.3591 8.75531,1.7705 0.97799,0.9023 1.42895,1.9193 1.53105,3.4531 0.1792,2.6919 -1.06273,4.6112 -3.44895,5.3299 -0.96146,0.2897 -1.12807,0.3918 -0.80336,0.493 0.83091,0.2588 1.79711,1.6766 3.79229,5.5651 1.12425,2.191 2.04408,4.033 2.04408,4.0931 0,0.06 -1.08907,0.085 -2.42017,0.057 l -2.42017,-0.053 -1.55841,-3.4042 c -0.85712,-1.8723 -1.72636,-3.6394 -1.93165,-3.927 -0.48569,-0.6804 -1.2051,-1.0332 -2.43285,-1.193 l -0.99384,-0.1294 v 4.374 4.3741 h -2.02376 -2.02377 z m 8.38417,-1.8076 c 1.49405,-0.7543 2.04992,-2.791 1.10221,-4.0387 -0.68558,-0.9026 -1.43708,-1.1788 -3.51231,-1.2911 l -1.92654,-0.1041 v 2.9771 2.977 l 1.78285,-0.065 c 1.32292,-0.048 1.98171,-0.1659 2.55379,-0.4547 z m 9.73333,1.8305 v -10.4244 h 4.03057 c 4.5355,0 6.28633,0.2342 8.03589,1.0747 3.12101,1.4996 4.71445,5.0104 4.44763,9.7996 -0.23858,4.2823 -1.74289,7.017 -4.71027,8.5628 -1.96226,1.0223 -3.01563,1.2039 -7.61174,1.3125 l -4.19208,0.099 z m 8.5595,6.6628 c 1.26519,-0.4094 2.44466,-1.5882 3.01703,-3.0155 0.38769,-0.9669 0.44942,-1.4607 0.45881,-3.6702 0.014,-3.2871 -0.30719,-4.4322 -1.59846,-5.6992 -1.10713,-1.0864 -2.00048,-1.3626 -4.46196,-1.3799 l -1.83103,-0.013 -0.0507,6.902 c -0.0278,3.7961 -0.004,7.0211 0.0529,7.1667 0.13509,0.3454 3.03786,0.154 4.41333,-0.291 z m 30.37383,2.1082 v -1.6075 h 2.40924 2.40924 v -7.1864 -7.1865 h -2.40924 -2.40924 v -1.6075 -1.6075 h 6.93861 6.93861 v 1.6075 1.6075 h -2.40924 -2.40924 v 7.1865 7.1864 h 2.40924 2.40924 v 1.6075 1.6075 h -6.93861 -6.93861 z m 17.92475,-8.7939 v -10.4015 h 2.5705 2.57049 l 2.81854,5.9099 c 1.55019,3.2505 3.11989,6.5482 3.48822,7.3283 l 0.66969,1.4184 0.0126,-7.3283 0.0126,-7.3283 h 1.92904 1.92903 l -0.0498,10.3542 -0.0499,10.3541 -2.46725,0.053 -2.46725,0.053 -1.30341,-2.7007 c -0.71687,-1.4854 -2.29533,-4.8111 -3.50766,-7.3905 l -2.20428,-4.6898 -0.0504,7.3847 -0.0504,7.3848 h -1.92516 -1.92516 z m -69.67525,-16.5478 c -13.14232,-1.8286 -23.76678,-10.773 -27.06973,-22.7888 -1.54861,-5.6338 -1.37286,-11.7217 0.49955,-17.3043 2.53933,-7.5711 8.59887,-14.3062 16.25004,-18.062 10.00215,-4.9097 22.78747,-4.3908 32.99222,1.3393 4.96278,2.7867 9.4833,6.9864 14.03025,13.0349 0.9774,1.3002 1.8411,2.387 1.91933,2.4152 0.0782,0.028 0.65214,-0.6528 1.27534,-1.513 4.50868,-6.2235 9.64784,-11.0895 14.71937,-13.9371 10.20476,-5.7301 22.99008,-6.249 32.99221,-1.3393 6.13115,3.0096 11.62393,8.2925 14.53035,13.9753 1.72608,3.3748 2.91326,7.6145 3.17357,11.3335 1.05182,15.0276 -9.03952,28.3218 -24.42368,32.1754 -4.28901,1.0745 -11.54817,1.2553 -15.91852,0.3966 -9.51544,-1.8696 -16.67705,-6.9532 -23.85813,-16.9356 -0.8979,-1.2481 -1.79585,-2.546 -1.99543,-2.884 -0.19958,-0.3381 -0.40924,-0.6116 -0.46589,-0.6081 -0.0567,0.01 -0.83836,1.0887 -1.73715,2.4113 -7.00836,10.3129 -14.59608,15.9421 -24.17124,17.9325 -2.00233,0.4162 -2.9379,0.4953 -6.5748,0.5558 -2.97926,0.05 -4.81344,-0.01 -6.16766,-0.1976 z m 8.55164,-10.6918 c 1.06863,-0.1076 2.61734,-0.3618 3.44155,-0.5648 1.87636,-0.4624 4.93503,-1.9435 6.70252,-3.2458 1.70899,-1.2592 4.44532,-3.9391 6.14356,-6.017 1.1389,-1.3935 5.63238,-7.8715 6.83382,-9.852 l 0.41239,-0.6798 -1.55176,-2.328 c -5.33676,-8.0068 -9.75811,-12.38 -15.11458,-14.9497 -5.8396,-2.8017 -13.76733,-3.0315 -19.78447,-0.5736 -4.42575,1.8078 -8.43354,5.4478 -10.53241,9.5659 -4.35247,8.5397 -1.86546,18.6306 6.03173,24.4737 1.87245,1.3854 5.18686,2.9402 7.51685,3.5261 1.67041,0.4201 4.04484,0.6861 7.25548,0.8129 0.38629,0.015 1.57668,-0.06 2.64532,-0.1679 z M 156.0578,1062.59 c -0.0526,-0.1344 -0.0715,-1.5599 -0.0421,-3.1677 l 0.0534,-2.9233 9.87788,-0.049 9.87789,-0.049 v 3.2168 3.2167 h -9.8358 c -7.86128,0 -9.85494,-0.049 -9.93131,-0.2443 z m 78.55253,17.8351 c 3.60133,-0.23 5.97869,-0.8158 8.76963,-2.1607 10.47236,-5.0461 14.5982,-16.7209 9.40955,-26.6261 -1.11906,-2.1362 -2.3261,-3.6827 -4.28779,-5.4934 -3.80836,-3.5153 -8.46516,-5.3672 -14.01858,-5.5752 -10.9036,-0.4084 -18.2315,4.1371 -26.59488,16.4966 -0.63346,0.9361 -1.33997,2.0072 -1.57001,2.3801 l -0.41825,0.678 1.05804,1.6535 c 4.83301,7.5529 8.61286,12.0994 12.32952,14.8301 2.82081,2.0724 6.35396,3.434 9.8499,3.7957 2.13263,0.2207 2.34147,0.2214 5.47287,0.022 z m -6.16766,-14.4703 v -2.9313 h -2.98745 -2.98746 v -3.4042 -3.404 h 2.98746 2.98745 v -2.9313 -2.9314 h 3.46931 3.46931 v 2.9314 2.9313 h 3.08827 3.08827 l -0.0526,3.3568 -0.0526,3.3568 -3.03565,0.052 -3.03564,0.052 v 2.9264 2.9265 h -3.46931 -3.4693 z m 30.64553,-32.3391 c 0,-1.1851 -0.0173,-1.2293 -0.48184,-1.2293 -0.26501,0 -0.48184,-0.085 -0.48184,-0.189 0,-0.1068 0.54609,-0.1892 1.2528,-0.1892 0.70672,0 1.2528,0.083 1.2528,0.1892 0,0.104 -0.21683,0.189 -0.48184,0.189 -0.46455,0 -0.48185,0.044 -0.48185,1.2293 0,0.9666 -0.0618,1.2293 -0.28911,1.2293 -0.22733,0 -0.28912,-0.2627 -0.28912,-1.2293 z m 1.73467,-0.2022 c 0,-1.3755 0.0169,-1.4293 0.43262,-1.3712 0.34242,0.048 0.4889,0.2675 0.70247,1.0533 0.14842,0.5462 0.32348,0.9929 0.38901,0.9929 0.0656,0 0.24849,-0.4457 0.40654,-0.9905 0.18787,-0.6474 0.40391,-1.0124 0.62391,-1.0539 0.2963,-0.057 0.33653,0.1076 0.33653,1.3686 0,0.8288 -0.0812,1.4323 -0.19273,1.4323 -0.10601,0 -0.19804,-0.4894 -0.20452,-1.0875 l -0.0118,-1.0874 -0.33237,1.0402 c -0.19167,0.5999 -0.44479,1.0401 -0.59798,1.0401 -0.14609,0 -0.41817,-0.4255 -0.60463,-0.9456 l -0.33898,-0.9456 -0.0149,0.9929 c -0.0113,0.75 -0.0857,0.9929 -0.30405,0.9929 -0.23153,0 -0.28912,-0.2852 -0.28912,-1.4315 z"
       id="path5068" />
  </g>
</svg>
