999
"DXF R12 Output" (www.mydxf.blogspot.com)
 0 
SECTION
 2 
HEADER
 9 
$ACADVER
 1 
AC1009
 9 
$EXTMIN
 10 
 0 
 20 
 0 
 9 
$EXTMAX
 10 
 8.5 
 20 
 11 
 0 
ENDSEC
 0 
SECTION
 2 
ENTITIES
0
LINE
8
Layer 1
10
0.793749
20
81.081300
11
-0.793749
21
79.493900
0
LINE
8
Layer 1
10
0.000000
20
81.610500
11
0.000000
21
78.964700
0
LINE
8
Layer 1
10
2.116660
20
79.229300
11
1.058330
21
78.170970
0
LINE
8
Layer 1
10
1.587500
20
79.758400
11
0.529170
21
78.700070
0
LINE
8
Layer 1
10
1.058330
20
80.287600
11
0.000000
21
79.229270
0
LINE
8
0
10
47.132300
20
80.155800
11
47.132300
21
76.432700
0
LINE
8
0
10
47.261300
20
76.574700
11
61.744800
21
76.574700
0
LINE
8
0
10
4.767420
20
75.155700
11
6.132270
21
75.155700
0
LINE
8
0
10
6.132270
20
75.155700
11
6.132270
21
80.155800
0
LINE
8
0
10
4.743220
20
76.465400
11
4.743220
21
80.142800
0
LINE
8
0
10
3.632280
20
76.655600
11
4.632270
21
76.655600
0
LINE
8
0
10
3.632280
20
76.655600
11
3.632280
21
6.654880
0
LINE
8
0
10
3.632280
20
6.654880
11
7.006140
21
6.654880
0
LINE
8
0
10
7.006140
20
6.654880
11
10.783860
21
3.633340
0
LINE
8
0
10
10.783900
20
3.633340
11
45.331200
21
3.633340
0
LINE
8
0
10
45.331200
20
3.633340
11
48.353530
21
6.654880
0
LINE
8
0
10
48.353600
20
6.654880
11
61.632200
21
6.654880
0
LINE
8
0
10
61.632200
20
6.654880
11
61.632200
21
76.655600
0
LINE
8
0
10
21.632300
20
76.655600
11
35.632200
21
76.655600
0
LINE
8
0
10
35.632200
20
76.655700
11
35.632200
21
78.655700
0
LINE
8
0
10
35.632200
20
78.655700
11
21.632300
21
78.655700
0
LINE
8
0
10
21.632300
20
78.655700
11
21.632300
21
76.655700
0
LINE
8
0
10
21.632300
20
76.655700
11
35.632200
21
76.655700
0
LINE
8
0
10
35.632200
20
76.655600
11
35.632200
21
78.655900
0
LINE
8
0
10
35.632200
20
76.655600
11
35.632200
21
78.655900
0
LINE
8
0
10
35.632200
20
78.655900
11
21.632300
21
78.655900
0
LINE
8
0
10
21.632300
20
78.655900
11
21.632300
21
76.655600
0
LINE
8
0
10
35.632200
20
76.655600
11
21.632300
21
76.655600
0
LINE
8
0
10
60.132200
20
75.155700
11
60.132200
21
65.155700
0
LINE
8
0
10
60.132200
20
65.155700
11
50.132200
21
65.155700
0
LINE
8
0
10
50.132200
20
65.155700
11
50.132200
21
75.155700
0
LINE
8
0
10
50.132200
20
75.155700
11
60.132200
21
75.155700
0
LINE
8
0
10
59.382200
20
61.655700
11
53.382200
21
61.655700
0
LINE
8
0
10
53.382200
20
61.655700
11
53.382200
21
7.689400
0
LINE
8
0
10
53.382200
20
7.689400
11
59.382200
21
7.689400
0
LINE
8
0
10
59.382200
20
7.689400
11
59.382200
21
61.655700
0
LINE
8
0
10
6.132270
20
46.655800
11
12.132300
21
46.655800
0
LINE
8
0
10
12.132300
20
46.655800
11
12.132300
21
7.689400
0
LINE
8
0
10
12.132300
20
7.689400
11
6.132270
21
7.689400
0
LINE
8
0
10
6.132270
20
7.689400
11
6.132270
21
46.655800
0
LINE
8
0
10
40.331300
20
5.133610
11
30.331300
21
5.133610
0
LINE
8
0
10
30.331300
20
5.133610
11
30.331300
21
11.133600
0
LINE
8
0
10
30.331300
20
11.133600
11
40.331300
21
11.133600
0
LINE
8
0
10
40.331300
20
11.133600
11
40.331300
21
5.133610
0
LINE
8
0
10
20.132400
20
78.655900
11
20.132400
21
63.655800
0
LINE
8
0
10
20.132400
20
78.655900
11
20.132400
21
80.155800
0
LINE
8
0
10
47.168200
20
80.155800
11
4.615340
21
80.155800
0
LINE
8
0
10
20.132400
20
63.655800
11
4.632270
21
63.655800
0
LINE
8
0
10
4.632270
20
63.655800
11
4.632270
21
75.333000
0
LINE
8
0
10
31.868400
20
28.481700
11
30.960311
21
28.909240
0
LINE
8
0
10
30.960311
20
28.909240
11
30.628635
21
29.368380
0
LINE
8
0
10
30.628635
20
29.368380
11
30.464856
21
30.027760
0
LINE
8
0
10
30.464856
20
30.027760
11
30.416390
21
32.226870
0
LINE
8
0
10
30.416390
20
32.226870
11
30.415861
21
34.015690
0
LINE
8
0
10
30.415861
20
34.015690
11
30.976900
21
34.015700
0
LINE
8
0
10
30.976900
20
34.015700
11
31.537800
21
34.015700
0
LINE
8
0
10
31.537800
20
34.015700
11
31.540181
21
32.026720
0
LINE
8
0
10
31.540181
20
32.026720
11
31.576683
21
30.096949
0
LINE
8
0
10
31.576683
20
30.096949
11
31.775202
21
29.553950
0
LINE
8
0
10
31.775202
20
29.553950
11
32.083310
21
29.350625
0
LINE
8
0
10
32.083310
20
29.350625
11
32.557960
21
29.290293
0
LINE
8
0
10
32.557960
20
29.290293
11
33.108755
21
29.382785
0
LINE
8
0
10
33.108755
20
29.382785
11
33.424779
21
29.738364
0
LINE
8
0
10
33.424779
20
29.738364
11
33.552268
21
29.987707
0
LINE
8
0
10
33.552268
20
29.987707
11
33.567693
21
32.001687
0
LINE
8
0
10
33.567693
20
32.001687
11
33.583119
21
34.015697
0
LINE
8
0
10
33.583119
20
34.015697
11
34.118500
21
34.015700
0
LINE
8
0
10
34.118500
20
34.015700
11
34.653900
21
34.015700
0
LINE
8
0
10
34.653900
20
34.015700
11
34.638554
21
31.951660
0
LINE
8
0
10
34.638554
20
31.951660
11
34.510879
21
29.618540
0
LINE
8
0
10
34.510879
20
29.618540
11
34.040050
21
28.927128
0
LINE
8
0
10
34.040050
20
28.927128
11
33.322799
21
28.537400
0
LINE
8
0
10
33.322799
20
28.537400
11
31.868459
21
28.481705
0
LINE
8
0
10
31.868459
20
28.481705
11
31.868400
21
28.481700
0
LINE
8
0
10
46.938500
20
28.479054
11
46.365833
21
28.693069
0
LINE
8
0
10
46.365833
20
28.693069
11
45.901430
21
29.064979
0
LINE
8
0
10
45.901430
20
29.064979
11
45.553825
21
29.585410
0
LINE
8
0
10
45.553825
20
29.585410
11
45.331550
21
30.244984
0
LINE
8
0
10
45.331550
20
30.244984
11
45.255387
21
31.277939
0
LINE
8
0
10
45.255387
20
31.277939
11
45.354384
21
32.276424
0
LINE
8
0
10
45.354384
20
32.276424
11
45.673242
21
33.073821
0
LINE
8
0
10
45.673242
20
33.073821
11
46.155771
21
33.639638
0
LINE
8
0
10
46.155771
20
33.639638
11
46.805767
21
33.976905
0
LINE
8
0
10
46.805767
20
33.976905
11
47.627024
21
34.088654
0
LINE
8
0
10
47.627024
20
34.088654
11
48.470297
21
33.970209
0
LINE
8
0
10
48.470297
20
33.970209
11
49.111346
21
33.608254
0
LINE
8
0
10
49.111346
20
33.608254
11
49.561261
21
32.992859
0
LINE
8
0
10
49.561261
20
32.992859
11
49.831134
21
32.114094
0
LINE
8
0
10
49.831134
20
32.114094
11
49.881823
21
31.130013
0
LINE
8
0
10
49.881823
20
31.130013
11
49.771772
21
30.196234
0
LINE
8
0
10
49.771772
20
30.196234
11
49.343076
21
29.292589
0
LINE
8
0
10
49.343076
20
29.292589
11
48.678542
21
28.694594
0
LINE
8
0
10
48.678542
20
28.694594
11
47.848201
21
28.445777
0
LINE
8
0
10
47.848201
20
28.445777
11
46.938512
21
28.479038
0
LINE
8
0
10
46.938512
20
28.479038
11
46.938500
21
28.479054
0
LINE
8
0
10
48.061740
20
29.474627
11
48.384221
21
29.720394
0
LINE
8
0
10
48.384221
20
29.720394
11
48.591862
21
30.100895
0
LINE
8
0
10
48.591862
20
30.100895
11
48.711564
21
31.412007
0
LINE
8
0
10
48.711564
20
31.412007
11
48.606581
21
32.385000
0
LINE
8
0
10
48.606581
20
32.385000
11
48.302831
21
32.901687
0
LINE
8
0
10
48.302831
20
32.901687
11
47.987240
21
33.108654
0
LINE
8
0
10
47.987240
20
33.108654
11
47.571063
21
33.164868
0
LINE
8
0
10
47.571063
20
33.164868
11
47.120304
21
33.087765
0
LINE
8
0
10
47.120304
20
33.087765
11
46.775912
21
32.819190
0
LINE
8
0
10
46.775912
20
32.819190
11
46.484736
21
32.244396
0
LINE
8
0
10
46.484736
20
32.244396
11
46.405255
21
31.263440
0
LINE
8
0
10
46.405255
20
31.263440
11
46.472721
21
30.335371
0
LINE
8
0
10
46.472721
20
30.335371
11
46.717796
21
29.752640
0
LINE
8
0
10
46.717796
20
29.752640
11
47.315216
21
29.384145
0
LINE
8
0
10
47.315216
20
29.384145
11
48.061736
21
29.474616
0
LINE
8
0
10
48.061736
20
29.474616
11
48.061740
21
29.474627
0
LINE
8
0
10
15.066340
20
28.544327
11
15.907767
21
31.270957
0
LINE
8
0
10
15.907767
20
31.270957
11
16.749191
21
33.991397
0
LINE
8
0
10
16.749191
20
33.991397
11
17.523694
21
34.004362
0
LINE
8
0
10
17.523694
20
34.004362
11
18.298192
21
33.990603
0
LINE
8
0
10
18.298192
20
33.990603
11
19.104075
21
31.413693
0
LINE
8
0
10
19.104075
20
31.413693
11
19.957321
21
28.674143
0
LINE
8
0
10
19.957321
20
28.674143
11
20.004687
21
28.511530
0
LINE
8
0
10
20.004687
20
28.511530
11
19.405000
21
28.511600
0
LINE
8
0
10
19.405000
20
28.511600
11
18.805200
21
28.511600
0
LINE
8
0
10
18.805200
20
28.511600
11
18.749997
21
28.699242
0
LINE
8
0
10
18.749997
20
28.699242
11
18.586778
21
29.249628
0
LINE
8
0
10
18.586778
20
29.249628
11
18.478765
21
29.612424
0
LINE
8
0
10
18.478765
20
29.612424
11
17.469100
21
29.612400
0
LINE
8
0
10
17.469100
20
29.612400
11
16.459300
21
29.612400
0
LINE
8
0
10
16.459300
20
29.612400
11
16.290239
21
29.061988
0
LINE
8
0
10
16.290239
20
29.061988
11
16.121178
21
28.511576
0
LINE
8
0
10
16.121178
20
28.511576
11
15.593800
21
28.511600
0
LINE
8
0
10
15.593800
20
28.511600
11
15.066386
21
28.544514
0
LINE
8
0
10
15.066386
20
28.544514
11
15.066340
21
28.544327
0
LINE
8
0
10
18.208670
20
30.550417
11
17.839635
21
31.801237
0
LINE
8
0
10
17.839635
20
31.801237
11
17.476553
21
32.944527
0
LINE
8
0
10
17.476553
20
32.944527
11
16.749193
21
30.510657
0
LINE
8
0
10
16.749193
20
30.510657
11
17.492065
21
30.462873
0
LINE
8
0
10
17.492065
20
30.462873
11
18.208670
21
30.550424
0
LINE
8
0
10
18.208670
20
30.550424
11
18.208670
21
30.550417
0
LINE
8
0
10
20.624850
20
31.263442
11
20.624900
21
34.015500
0
LINE
8
0
10
20.624900
20
34.015500
11
21.665800
21
34.015500
0
LINE
8
0
10
21.665800
20
34.015500
11
23.212953
21
33.921315
0
LINE
8
0
10
23.212953
20
33.921315
11
23.982310
21
33.547056
0
LINE
8
0
10
23.982310
20
33.547056
11
24.271760
21
33.152897
0
LINE
8
0
10
24.271760
20
33.152897
11
24.387400
21
32.633424
0
LINE
8
0
10
24.387400
20
32.633424
11
24.353603
21
32.139348
0
LINE
8
0
10
24.353603
20
32.139348
11
24.185671
21
31.732544
0
LINE
8
0
10
24.185671
20
31.732544
11
23.890469
21
31.423630
0
LINE
8
0
10
23.890469
20
31.423630
11
23.474866
21
31.223224
0
LINE
8
0
10
23.474866
20
31.223224
11
23.262311
21
31.092785
0
LINE
8
0
10
23.262311
20
31.092785
11
23.648482
21
30.716703
0
LINE
8
0
10
23.648482
20
30.716703
11
24.265691
21
29.620355
0
LINE
8
0
10
24.265691
20
29.620355
11
24.806520
21
28.537395
0
LINE
8
0
10
24.806520
20
28.537395
11
24.166184
21
28.522314
0
LINE
8
0
10
24.166184
20
28.522314
11
23.525848
21
28.536337
0
LINE
8
0
10
23.525848
20
28.536337
11
23.113519
21
29.437030
0
LINE
8
0
10
23.113519
20
29.437030
11
22.602437
21
30.476050
0
LINE
8
0
10
22.602437
20
30.476050
11
22.354218
21
30.685527
0
LINE
8
0
10
22.354218
20
30.685527
11
21.958746
21
30.791698
0
LINE
8
0
10
21.958746
20
30.791698
11
21.695793
21
30.825935
0
LINE
8
0
10
21.695793
20
30.825935
11
21.695800
21
29.668700
0
LINE
8
0
10
21.695800
20
29.668700
11
21.695800
21
28.511300
0
LINE
8
0
10
21.695800
20
28.511300
11
21.160400
21
28.511300
0
LINE
8
0
10
21.160400
20
28.511300
11
20.624900
21
28.511300
0
LINE
8
0
10
20.624900
20
28.511300
11
20.624850
21
31.263442
0
LINE
8
0
10
22.843160
20
31.741702
11
23.231241
21
32.227033
0
LINE
8
0
10
23.231241
20
32.227033
11
23.134786
21
32.810272
0
LINE
8
0
10
23.134786
20
32.810272
11
22.808016
21
33.059486
0
LINE
8
0
10
22.808016
20
33.059486
11
22.205488
21
33.151875
0
LINE
8
0
10
22.205488
20
33.151875
11
21.695758
21
33.179418
0
LINE
8
0
10
21.695758
20
33.179418
11
21.695800
21
32.391700
0
LINE
8
0
10
21.695800
20
32.391700
11
21.695800
21
31.604100
0
LINE
8
0
10
21.695800
20
31.604100
11
22.167512
21
31.621298
0
LINE
8
0
10
22.167512
20
31.621298
11
22.843201
21
31.741604
0
LINE
8
0
10
22.843201
20
31.741604
11
22.843160
21
31.741702
0
LINE
8
0
10
25.418430
20
31.257383
11
25.418500
21
34.015500
0
LINE
8
0
10
25.418500
20
34.015500
11
26.484900
21
34.015500
0
LINE
8
0
10
26.484900
20
34.015500
11
27.824400
21
33.956720
0
LINE
8
0
10
27.824400
20
33.956720
11
28.611060
21
33.731153
0
LINE
8
0
10
28.611060
20
33.731153
11
29.153227
21
33.336831
0
LINE
8
0
10
29.153227
20
33.336831
11
29.535578
21
32.761137
0
LINE
8
0
10
29.535578
20
32.761137
11
29.749863
21
32.022249
0
LINE
8
0
10
29.749863
20
32.022249
11
29.787830
21
31.138343
0
LINE
8
0
10
29.787830
20
31.138343
11
29.676879
21
30.363869
0
LINE
8
0
10
29.676879
20
30.363869
11
29.435449
21
29.734047
0
LINE
8
0
10
29.435449
20
29.734047
11
29.058644
21
29.239980
0
LINE
8
0
10
29.058644
20
29.239980
11
28.541570
21
28.872773
0
LINE
8
0
10
28.541570
20
28.872773
11
27.795928
21
28.608485
0
LINE
8
0
10
27.795928
20
28.608485
11
26.527630
21
28.525508
0
LINE
8
0
10
26.527630
20
28.525508
11
25.418480
21
28.499314
0
LINE
8
0
10
25.418480
20
28.499314
11
25.418430
21
31.257383
0
LINE
8
0
10
27.683130
20
29.494523
11
28.150998
21
29.792454
0
LINE
8
0
10
28.150998
20
29.792454
11
28.481385
21
30.292373
0
LINE
8
0
10
28.481385
20
30.292373
11
28.602778
21
31.263446
0
LINE
8
0
10
28.602778
20
31.263446
11
28.520822
21
32.217832
0
LINE
8
0
10
28.520822
20
32.217832
11
28.179853
21
32.771356
0
LINE
8
0
10
28.179853
20
32.771356
11
27.723950
21
33.059980
0
LINE
8
0
10
27.723950
20
33.059980
11
26.999293
21
33.136454
0
LINE
8
0
10
26.999293
20
33.136454
11
26.514834
21
33.139894
0
LINE
8
0
10
26.514834
20
33.139894
11
26.501420
21
31.313744
0
LINE
8
0
10
26.501420
20
31.313744
11
26.515416
21
29.417554
0
LINE
8
0
10
26.515416
20
29.417554
11
27.683106
21
29.494547
0
LINE
8
0
10
27.683106
20
29.494547
11
27.683130
21
29.494523
0
LINE
8
0
10
35.719530
20
28.936729
11
35.719600
21
29.362100
0
LINE
8
0
10
35.719600
20
29.362100
11
36.357000
21
29.362100
0
LINE
8
0
10
36.357000
20
29.362100
11
36.994500
21
29.362100
0
LINE
8
0
10
36.994500
20
29.362100
11
36.994500
21
31.263500
0
LINE
8
0
10
36.994500
20
31.263500
11
36.994500
21
33.164900
0
LINE
8
0
10
36.994500
20
33.164900
11
36.357000
21
33.164900
0
LINE
8
0
10
36.357000
20
33.164900
11
35.719600
21
33.164900
0
LINE
8
0
10
35.719600
20
33.164900
11
35.719600
21
33.590200
0
LINE
8
0
10
35.719600
20
33.590200
11
35.719600
21
34.015500
0
LINE
8
0
10
35.719600
20
34.015500
11
37.555400
21
34.015500
0
LINE
8
0
10
37.555400
20
34.015500
11
39.391300
21
34.015500
0
LINE
8
0
10
39.391300
20
34.015500
11
39.391300
21
33.590200
0
LINE
8
0
10
39.391300
20
33.590200
11
39.391300
21
33.164900
0
LINE
8
0
10
39.391300
20
33.164900
11
38.753800
21
33.164900
0
LINE
8
0
10
38.753800
20
33.164900
11
38.116400
21
33.164900
0
LINE
8
0
10
38.116400
20
33.164900
11
38.116400
21
31.263500
0
LINE
8
0
10
38.116400
20
31.263500
11
38.116400
21
29.362100
0
LINE
8
0
10
38.116400
20
29.362100
11
38.753800
21
29.362100
0
LINE
8
0
10
38.753800
20
29.362100
11
39.391300
21
29.362100
0
LINE
8
0
10
39.391300
20
29.362100
11
39.391300
21
28.936700
0
LINE
8
0
10
39.391300
20
28.936700
11
39.391300
21
28.511400
0
LINE
8
0
10
39.391300
20
28.511400
11
37.555400
21
28.511400
0
LINE
8
0
10
37.555400
20
28.511400
11
35.719600
21
28.511400
0
LINE
8
0
10
35.719600
20
28.511400
11
35.719530
21
28.936729
0
LINE
8
0
10
40.462110
20
31.263449
11
40.462200
21
34.015500
0
LINE
8
0
10
40.462200
20
34.015500
11
41.142300
21
34.015500
0
LINE
8
0
10
41.142300
20
34.015500
11
41.822400
21
34.015500
0
LINE
8
0
10
41.822400
20
34.015500
11
42.568138
21
32.451840
0
LINE
8
0
10
42.568138
20
32.451840
11
43.491062
21
30.512900
0
LINE
8
0
10
43.491062
20
30.512900
11
43.668251
21
30.137615
0
LINE
8
0
10
43.668251
20
30.137615
11
43.671585
21
32.076555
0
LINE
8
0
10
43.671585
20
32.076555
11
43.674919
21
34.015495
0
LINE
8
0
10
43.674919
20
34.015495
11
44.185300
21
34.015500
0
LINE
8
0
10
44.185300
20
34.015500
11
44.695700
21
34.015500
0
LINE
8
0
10
44.695700
20
34.015500
11
44.682524
21
31.275950
0
LINE
8
0
10
44.682524
20
31.275950
11
44.669321
21
28.536430
0
LINE
8
0
10
44.669321
20
28.536430
11
44.016529
21
28.522407
0
LINE
8
0
10
44.016529
20
28.522407
11
43.363737
21
28.508384
0
LINE
8
0
10
43.363737
20
28.508384
11
43.018877
21
29.222943
0
LINE
8
0
10
43.018877
20
29.222943
11
42.090810
21
31.178343
0
LINE
8
0
10
42.090810
20
31.178343
11
41.507595
21
32.419183
0
LINE
8
0
10
41.507595
20
32.419183
11
41.494260
21
30.465313
0
LINE
8
0
10
41.494260
20
30.465313
11
41.480925
21
28.511423
0
LINE
8
0
10
41.480925
20
28.511423
11
40.971500
21
28.511400
0
LINE
8
0
10
40.971500
20
28.511400
11
40.462200
21
28.511400
0
LINE
8
0
10
40.462200
20
28.511400
11
40.462110
21
31.263449
0
LINE
8
0
10
22.027210
20
35.641719
11
20.756958
21
35.909313
0
LINE
8
0
10
20.756958
20
35.909313
11
19.564054
21
36.340871
0
LINE
8
0
10
19.564054
20
36.340871
11
18.463392
21
36.923854
0
LINE
8
0
10
18.463392
20
36.923854
11
17.469866
21
37.645723
0
LINE
8
0
10
17.469866
20
37.645723
11
16.598372
21
38.493936
0
LINE
8
0
10
16.598372
20
38.493936
11
15.863803
21
39.455955
0
LINE
8
0
10
15.863803
20
39.455955
11
15.281054
21
40.519239
0
LINE
8
0
10
15.281054
20
40.519239
11
14.865020
21
41.671249
0
LINE
8
0
10
14.865020
20
41.671249
11
14.643148
21
42.807767
0
LINE
8
0
10
14.643148
20
42.807767
11
14.591677
21
43.965540
0
LINE
8
0
10
14.591677
20
43.965540
11
14.709921
21
45.120773
0
LINE
8
0
10
14.709921
20
45.120773
11
14.997192
21
46.249669
0
LINE
8
0
10
14.997192
20
46.249669
11
15.667751
21
47.701722
0
LINE
8
0
10
15.667751
20
47.701722
11
16.639742
21
49.017667
0
LINE
8
0
10
16.639742
20
49.017667
11
17.865328
21
50.144338
0
LINE
8
0
10
17.865328
20
50.144338
11
19.296672
21
51.028569
0
LINE
8
0
10
19.296672
20
51.028569
11
21.397369
21
51.734425
0
LINE
8
0
10
21.397369
20
51.734425
11
23.641162
21
51.907056
0
LINE
8
0
10
23.641162
20
51.907056
11
25.895005
21
51.551855
0
LINE
8
0
10
25.895005
20
51.551855
11
28.025852
21
50.674213
0
LINE
8
0
10
28.025852
20
50.674213
11
29.923195
21
49.273440
0
LINE
8
0
10
29.923195
20
49.273440
11
31.738022
21
47.225403
0
LINE
8
0
10
31.738022
20
47.225403
11
32.245844
21
46.586382
0
LINE
8
0
10
32.245844
20
46.586382
11
32.583277
21
46.986696
0
LINE
8
0
10
32.583277
20
46.986696
11
34.474678
21
49.165406
0
LINE
8
0
10
34.474678
20
49.165406
11
35.470923
21
50.011745
0
LINE
8
0
10
35.470923
20
50.011745
11
36.477777
21
50.674216
0
LINE
8
0
10
36.477777
20
50.674216
11
38.608628
21
51.551860
0
LINE
8
0
10
38.608628
20
51.551860
11
40.862471
21
51.907062
0
LINE
8
0
10
40.862471
20
51.907062
11
43.106262
21
51.734430
0
LINE
8
0
10
43.106262
20
51.734430
11
45.206957
21
51.028572
0
LINE
8
0
10
45.206957
20
51.028572
11
46.383883
21
50.326324
0
LINE
8
0
10
46.383883
20
50.326324
11
47.449151
21
49.444991
0
LINE
8
0
10
47.449151
20
49.444991
11
48.354441
21
48.431042
0
LINE
8
0
10
48.354441
20
48.431042
11
49.051437
21
47.330942
0
LINE
8
0
10
49.051437
20
47.330942
11
49.616705
21
45.865767
0
LINE
8
0
10
49.616705
20
45.865767
11
49.891110
21
44.332292
0
LINE
8
0
10
49.891110
20
44.332292
11
49.860292
21
42.866755
0
LINE
8
0
10
49.860292
20
42.866755
11
49.571212
21
41.468110
0
LINE
8
0
10
49.571212
20
41.468110
11
49.042009
21
40.160256
0
LINE
8
0
10
49.042009
20
40.160256
11
48.290822
21
38.967090
0
LINE
8
0
10
48.290822
20
38.967090
11
47.335790
21
37.912507
0
LINE
8
0
10
47.335790
20
37.912507
11
46.195052
21
37.020405
0
LINE
8
0
10
46.195052
20
37.020405
11
44.886749
21
36.314681
0
LINE
8
0
10
44.886749
20
36.314681
11
43.429020
21
35.819232
0
LINE
8
0
10
43.429020
20
35.819232
11
41.331205
21
35.574956
0
LINE
8
0
10
41.331205
20
35.574956
11
39.217250
21
35.714298
0
LINE
8
0
10
39.217250
20
35.714298
11
37.435995
21
36.251706
0
LINE
8
0
10
37.435995
20
36.251706
11
35.829413
21
37.149793
0
LINE
8
0
10
35.829413
20
37.149793
11
34.338634
21
38.450351
0
LINE
8
0
10
34.338634
20
38.450351
11
32.904790
21
40.195168
0
LINE
8
0
10
32.904790
20
40.195168
11
32.376833
21
40.958225
0
LINE
8
0
10
32.376833
20
40.958225
11
32.253566
21
41.119118
0
LINE
8
0
10
32.253566
20
41.119118
11
31.793946
21
40.481129
0
LINE
8
0
10
31.793946
20
40.481129
11
30.368665
21
38.662700
0
LINE
8
0
10
30.368665
20
38.662700
11
28.850974
21
37.283064
0
LINE
8
0
10
28.850974
20
37.283064
11
27.205943
21
36.316303
0
LINE
8
0
10
27.205943
20
36.316303
11
25.398646
21
35.736499
0
LINE
8
0
10
25.398646
20
35.736499
11
23.659066
21
35.589444
0
LINE
8
0
10
23.659066
20
35.589444
11
22.027206
21
35.641726
0
LINE
8
0
10
22.027206
20
35.641726
11
22.027210
21
35.641719
0
LINE
8
0
10
24.289830
20
38.470589
11
25.200406
21
38.620025
0
LINE
8
0
10
25.200406
20
38.620025
11
26.097896
21
38.966083
0
LINE
8
0
10
26.097896
20
38.966083
11
26.973776
21
39.478809
0
LINE
8
0
10
26.973776
20
39.478809
11
28.599256
21
41.070809
0
LINE
8
0
10
28.599256
20
41.070809
11
30.407366
21
43.677479
0
LINE
8
0
10
30.407366
20
43.677479
11
30.516477
21
43.857343
0
LINE
8
0
10
30.516477
20
43.857343
11
30.105908
21
44.473292
0
LINE
8
0
10
30.105908
20
44.473292
11
29.084657
21
45.889444
0
LINE
8
0
10
29.084657
20
45.889444
11
28.108332
21
46.990472
0
LINE
8
0
10
28.108332
20
46.990472
11
27.131030
21
47.821770
0
LINE
8
0
10
27.131030
20
47.821770
11
26.106848
21
48.428732
0
LINE
8
0
10
26.106848
20
48.428732
11
24.860994
21
48.856625
0
LINE
8
0
10
24.860994
20
48.856625
11
23.507147
21
49.026465
0
LINE
8
0
10
23.507147
20
49.026465
11
22.144493
21
48.935380
0
LINE
8
0
10
22.144493
20
48.935380
11
20.872218
21
48.580497
0
LINE
8
0
10
20.872218
20
48.580497
11
20.020882
21
48.136466
0
LINE
8
0
10
20.020882
20
48.136466
11
19.247999
21
47.544234
0
LINE
8
0
10
19.247999
20
47.544234
11
18.590551
21
46.837391
0
LINE
8
0
10
18.590551
20
46.837391
11
18.085518
21
46.049527
0
LINE
8
0
10
18.085518
20
46.049527
11
17.737759
21
45.185988
0
LINE
8
0
10
17.737759
20
45.185988
11
17.555219
21
44.301952
0
LINE
8
0
10
17.555219
20
44.301952
11
17.533466
21
43.415400
0
LINE
8
0
10
17.533466
20
43.415400
11
17.668070
21
42.544312
0
LINE
8
0
10
17.668070
20
42.544312
11
17.954597
21
41.706669
0
LINE
8
0
10
17.954597
20
41.706669
11
18.388617
21
40.920450
0
LINE
8
0
10
18.388617
20
40.920450
11
18.965698
21
40.203636
0
LINE
8
0
10
18.965698
20
40.203636
11
19.681408
21
39.574207
0
LINE
8
0
10
19.681408
20
39.574207
11
20.630425
21
39.028409
0
LINE
8
0
10
20.630425
20
39.028409
11
21.670238
21
38.641261
0
LINE
8
0
10
21.670238
20
38.641261
11
23.589918
21
38.426181
0
LINE
8
0
10
23.589918
20
38.426181
11
24.289825
21
38.470605
0
LINE
8
0
10
24.289825
20
38.470605
11
24.289830
21
38.470589
0
LINE
8
0
10
20.800330
20
43.186989
11
20.789191
21
44.025109
0
LINE
8
0
10
20.789191
20
44.025109
11
20.803320
21
44.798564
0
LINE
8
0
10
20.803320
20
44.798564
11
23.416840
21
44.811529
0
LINE
8
0
10
23.416840
20
44.811529
11
26.030360
21
44.824493
0
LINE
8
0
10
26.030360
20
44.824493
11
26.030400
21
43.973400
0
LINE
8
0
10
26.030400
20
43.973400
11
26.030400
21
43.122300
0
LINE
8
0
10
26.030400
20
43.122300
11
23.428000
21
43.122300
0
LINE
8
0
10
23.428000
20
43.122300
11
20.800340
21
43.186938
0
LINE
8
0
10
20.800340
20
43.186938
11
20.800330
21
43.186989
0
LINE
8
0
10
41.584030
20
38.468129
11
42.824584
21
38.643353
0
LINE
8
0
10
42.824584
20
38.643353
11
43.904330
21
39.039813
0
LINE
8
0
10
43.904330
20
39.039813
11
44.863138
21
39.618351
0
LINE
8
0
10
44.863138
20
39.618351
11
45.655321
21
40.335273
0
LINE
8
0
10
45.655321
20
40.335273
11
46.271676
21
41.164538
0
LINE
8
0
10
46.271676
20
41.164538
11
46.703000
21
42.080107
0
LINE
8
0
10
46.703000
20
42.080107
11
46.940091
21
43.055940
0
LINE
8
0
10
46.940091
20
43.055940
11
46.973746
21
44.065997
0
LINE
8
0
10
46.973746
20
44.065997
11
46.794763
21
45.084238
0
LINE
8
0
10
46.794763
20
45.084238
11
46.393940
21
46.084623
0
LINE
8
0
10
46.393940
20
46.084623
11
45.910306
21
46.843649
0
LINE
8
0
10
45.910306
20
46.843649
11
45.259460
21
47.538083
0
LINE
8
0
10
45.259460
20
47.538083
11
44.461448
21
48.153210
0
LINE
8
0
10
44.461448
20
48.153210
11
43.578061
21
48.603780
0
LINE
8
0
10
43.578061
20
48.603780
11
42.608104
21
48.890277
0
LINE
8
0
10
42.608104
20
48.890277
11
41.550380
21
49.013183
0
LINE
8
0
10
41.550380
20
49.013183
11
39.545024
21
48.836641
0
LINE
8
0
10
39.545024
20
48.836641
11
38.639645
21
48.541880
0
LINE
8
0
10
38.639645
20
48.541880
11
37.780068
21
48.097635
0
LINE
8
0
10
37.780068
20
48.097635
11
36.141130
21
46.725224
0
LINE
8
0
10
36.141130
20
46.725224
11
34.513830
21
44.648463
0
LINE
8
0
10
34.513830
20
44.648463
11
34.098432
21
44.018729
0
LINE
8
0
10
34.098432
20
44.018729
11
33.987770
21
43.839342
0
LINE
8
0
10
33.987770
20
43.839342
11
34.267709
21
43.401854
0
LINE
8
0
10
34.267709
20
43.401854
11
36.009563
21
40.961504
0
LINE
8
0
10
36.009563
20
40.961504
11
37.529889
21
39.478064
0
LINE
8
0
10
37.529889
20
39.478064
11
38.765962
21
38.806192
0
LINE
8
0
10
38.765962
20
38.806192
11
40.136009
21
38.473784
0
LINE
8
0
10
40.136009
20
38.473784
11
41.584039
21
38.467963
0
LINE
8
0
10
41.584039
20
38.467963
11
41.584030
21
38.468129
0
LINE
8
0
10
39.952170
20
42.296729
11
39.952200
21
43.072300
0
LINE
8
0
10
39.952200
20
43.072300
11
39.161800
21
43.072300
0
LINE
8
0
10
39.161800
20
43.072300
11
38.371300
21
43.072300
0
LINE
8
0
10
38.371300
20
43.072300
11
38.371300
21
43.973000
0
LINE
8
0
10
38.371300
20
43.973000
11
38.371300
21
44.873600
0
LINE
8
0
10
38.371300
20
44.873600
11
39.161800
21
44.873600
0
LINE
8
0
10
39.161800
20
44.873600
11
39.952200
21
44.873600
0
LINE
8
0
10
39.952200
20
44.873600
11
39.952200
21
45.649200
0
LINE
8
0
10
39.952200
20
45.649200
11
39.952200
21
46.424800
0
LINE
8
0
10
39.952200
20
46.424800
11
40.870100
21
46.424800
0
LINE
8
0
10
40.870100
20
46.424800
11
41.788000
21
46.424800
0
LINE
8
0
10
41.788000
20
46.424800
11
41.788000
21
45.649200
0
LINE
8
0
10
41.788000
20
45.649200
11
41.788000
21
44.873600
0
LINE
8
0
10
41.788000
20
44.873600
11
42.605200
21
44.873600
0
LINE
8
0
10
42.605200
20
44.873600
11
43.422300
21
44.873600
0
LINE
8
0
10
43.422300
20
44.873600
11
43.408383
21
43.985448
0
LINE
8
0
10
43.408383
20
43.985448
11
43.394466
21
43.097296
0
LINE
8
0
10
43.394466
20
43.097296
11
42.591285
21
43.083538
0
LINE
8
0
10
42.591285
20
43.083538
11
41.788106
21
43.069779
0
LINE
8
0
10
41.788106
20
43.069779
11
41.788100
21
42.295500
0
LINE
8
0
10
41.788100
20
42.295500
11
41.788100
21
41.521200
0
LINE
8
0
10
41.788100
20
41.521200
11
40.870100
21
41.521200
0
LINE
8
0
10
40.870100
20
41.521200
11
39.952200
21
41.521200
0
LINE
8
0
10
39.952200
20
41.521200
11
39.952170
21
42.296729
0
LINE
8
0
10
48.060460
20
50.853109
11
48.042808
21
51.133319
0
LINE
8
0
10
48.042808
20
51.133319
11
47.932973
21
51.178361
0
LINE
8
0
10
47.932973
20
51.178361
11
47.805486
21
51.228367
0
LINE
8
0
10
47.805486
20
51.228367
11
48.136956
21
51.278426
0
LINE
8
0
10
48.136956
20
51.278426
11
48.468426
21
51.228367
0
LINE
8
0
10
48.468426
20
51.228367
11
48.340939
21
51.178361
0
LINE
8
0
10
48.340939
20
51.178361
11
48.231103
21
51.133339
0
LINE
8
0
10
48.231103
20
51.133339
11
48.213450
21
50.853109
0
LINE
8
0
10
48.213450
20
50.853109
11
48.136956
21
50.527857
0
LINE
8
0
10
48.136956
20
50.527857
11
48.060460
21
50.853109
0
LINE
8
0
10
48.060460
20
50.853109
11
48.060460
21
50.853109
0
LINE
8
0
10
48.519424
20
50.906608
11
48.535409
21
51.230246
0
LINE
8
0
10
48.535409
20
51.230246
11
48.633888
21
51.269404
0
LINE
8
0
10
48.633888
20
51.269404
11
48.819750
21
50.990719
0
LINE
8
0
10
48.819750
20
50.990719
11
48.922675
21
50.728015
0
LINE
8
0
10
48.922675
20
50.728015
11
49.030239
21
50.990084
0
LINE
8
0
10
49.030239
20
50.990084
11
49.195315
21
51.268928
0
LINE
8
0
10
49.195315
20
51.268928
11
49.284355
21
50.906820
0
LINE
8
0
10
49.284355
20
50.906820
11
49.233362
21
50.527858
0
LINE
8
0
10
49.233362
20
50.527858
11
49.179250
21
50.815592
0
LINE
8
0
10
49.179250
20
50.815592
11
49.176127
21
51.103300
0
LINE
8
0
10
49.176127
20
51.103300
11
49.088188
21
50.828081
0
LINE
8
0
10
49.088188
20
50.828081
11
48.929973
21
50.552888
0
LINE
8
0
10
48.929973
20
50.552888
11
48.769998
21
50.803078
0
LINE
8
0
10
48.769998
20
50.803078
11
48.680310
21
51.053268
0
LINE
8
0
10
48.680310
20
51.053268
11
48.676367
21
50.790564
0
LINE
8
0
10
48.676367
20
50.790564
11
48.595921
21
50.527860
0
LINE
8
0
10
48.595921
20
50.527860
11
48.519425
21
50.906611
0
LINE
8
0
10
48.519425
20
50.906611
11
48.519424
21
50.906608
 0 
ENDSEC
 0 
EOF